<svg xmlns="http://www.w3.org/2000/svg" viewBox="0 0 993.46973 199.51611"><defs><style>.cls-1{fill:#e50414;}</style></defs><g id="Camada_2" data-name="Camada 2"><g id="Camada_1-2" data-name="Camada 1"><path class="cls-1" d="M0,2.78174l46.18359-.09668c15.25245,0,26.93653,3.959,34.72754,11.76709,7.70606,7.72314,11.59619,19.19775,11.563,34.105l-.04,17.92969c-.03271,14.856-3.9497,26.60742-11.6416,34.92773-7.8042,8.44141-19.52539,13.3794-34.83887,14.67627-5.4497.46143-8.32226.7085-13.4917,1.16016L32.394,194.5415l-.854.125c-12.18164,1.78321-18.14551,2.68457-30.38574,4.59668L0,199.44287ZM32.48779,88.12939c5.07764-.33886,7.94971-.52734,13.35059-.87744,9.97217-.645,14.04785-5.70947,14.06689-17.48095l.03516-22.03907c.01025-6.32373-1.20508-10.62011-3.71533-13.13427-2.09375-2.09717-5.12989-3.07422-9.55371-3.07422-.22266,0-.44678.00244-.67432.00781l-13.46.29883Z"/><path class="cls-1" d="M140.50293,182.69287c-11.73389,0-20.91064-3.23535-27.27686-9.61719-7.002-7.01855-10.53466-17.75488-10.5-31.91015l.02735-11.22022.91064-.07959c11.58692-1.01318,17.25049-1.49023,28.85694-2.42968l1.08349-.0879-.0376,13.18457c-.01562,5.51856,1.17481,9.499,3.53809,11.86915,1.98,1.98535,4.80811,2.95019,8.64648,2.95019.78321,0,1.62012-.042,2.48633-.124,10.31592-.98242,14.93262-6.48438,14.96875-17.83887.04444-13.9209-5.68994-22.17871-25.5664-36.81543-24.93018-18.35791-34.1792-33.19922-34.126-54.75879.03564-14.48681,4.07666-25.83838,12.01074-33.73974C123.5708,4.0625,135.23438,0,150.19189,0c14.98194,0,26.481,3.91553,34.17774,11.63818,7.43555,7.46045,11.18164,18.31885,11.13476,32.273l-.02685,8.03858-.96924.02636c-11.55664.31592-17.33447.481-28.88916.82666l-1.0332.03077.03174-9.95459c.01855-5.87549-1.2168-9.98-3.77735-12.54883-2.229-2.23584-5.499-3.32276-9.998-3.32276l-.43262.00342c-9.75391.14893-14.311,5.28272-14.34278,16.15723-.03613,12.60205,6.48975,21.69385,25.86231,36.03027,25.68457,19.00635,33.90527,32.10352,33.832,53.89893-.09473,28.33105-16.82812,45.77734-47.11816,49.126A74.66881,74.66881,0,0,1,140.50293,182.69287Z"/><path class="cls-1" d="M211.69385,2.4165,212.689,2.415c33.34278-.0415,50.01417-.05957,83.35743-.08887l1.0039-.001-.07812,25.24658-.98731.00976c-20.88769.20313-31.25341.3169-51.814.56885l-.14209,41.97754c16.209-.5332,24.45019-.78125,40.94336-1.23438l1.03076-.02832-.08057,25.34571-.96045.03564c-16.52587.60742-24.76757.93994-41.0205,1.65576l-.166,49.10791c20.51563-1.3955,30.89453-2.02636,51.78565-3.15136l1.05712-.05664-.07812,25.25-.93457.05859c-33.543,2.10352-49.91162,3.34375-83.40088,6.32031l-1.09229.09668Z"/><path class="cls-1" d="M353.73,166.19092c-14.41357,0-25.40283-3.69141-32.66211-10.97266C314.394,148.5249,311.02832,138.94678,311.064,126.75l.36768-124.437,32.56494-.02393-.32617,125.05957c-.0127,4.96289,1.082,8.4795,3.34717,10.75049,2.15771,2.16309,5.42138,3.21484,9.97754,3.21484q.58374,0,1.1875-.02246c10.11865-.38183,14.64111-5.00537,14.66308-14.99267L373.11523,2.271l31.45411-.01514-.208,121.46924c-.04444,26.00781-16.63281,41.05761-46.70947,42.37793C356.32471,166.16162,355.00537,166.19092,353.73,166.19092Z"/><path class="cls-1" d="M424.23193,2.249l47.67969-.01025c30.47022,0,46.57568,13.73291,46.58545,39.71387l.03223,79.2207c.00976,26.13281-15.69629,39.50293-46.6836,39.74121-18.85058.14551-28.03613.2832-46.80273.70117l-1.02393.02246Zm32.46094,134.41455c5.58545-.06054,8.69678-.08789,14.5918-.12793,10.10205-.06787,14.60742-4.47363,14.60937-14.28466l.01465-81.42969c.001-5.1333-1.23877-8.74609-3.79-11.04541-2.35547-2.12207-5.86474-3.15381-10.72949-3.15381v-1l-.04248,1c-5.88574.00684-8.98877.01172-14.56934.02246Z"/><path class="cls-1" d="M584.9668,164.2583c-.834,0-1.67383-.01172-2.53028-.03418-30.63769-.833-47.52148-15.51758-47.541-41.35107l-.0625-82.4419c-.00977-12.84326,4.12109-22.898,12.27637-29.88525C555.27734,3.54834,567.08594,0,582.207,0c30.12207,0,47.43262,14.96045,47.49317,41.04541l.19433,83.67432c.02735,11.81347-3.35742,21.18017-10.06152,27.89892C612.12793,160.34229,600.39746,164.2583,584.9668,164.2583Zm-2.84864-139.727c-5.01367,0-8.76953,1.21484-11.16211,3.61133-2.35449,2.35644-3.54394,6.00439-3.53808,10.84131l.1123,85.86084c.01368,9.89306,4.75489,14.61084,14.92188,14.84814q.36914.00879.73144.00879c4.82715,0,8.30274-1.13086,10.626-3.45752,2.30664-2.31152,3.47266-5.92383,3.46387-10.73633l-.16016-86.31836c-.01855-9.9624-4.74512-14.62011-14.875-14.6582Z"/><path class="cls-1" d="M680.14844,166.07568c-12.27637-.70214-18.28516-1.01757-30.61621-1.60644l-.94922-.0459L648.16113,2.28857l1.00391.00049c32.34277.02149,48.51465.03516,80.85742.06836l.99609.001.084,25.58252-1.01465-.01123c-19.77832-.22412-29.83594-.32617-49.28809-.49951l.127,43.07861c15.14355.37353,22.89941.58594,38.51269,1.05322l.9668.02881.082,25.47412-1.043-.0415c-15.51269-.6167-23.26465-.89893-38.44433-1.39649l.208,70.50928Z"/><path class="cls-1" d="M826.04492,177.77686c-32.43457-3.34766-48.29785-4.78125-80.82422-7.3086l-.91992-.07129-.5664-168.0249,32.56445.0376.49219,144.57226c19.5791,1.47071,29.45312,2.28125,49.36425,4.0459l.90918.08008.08692,26.78223Z"/><path class="cls-1" d="M871.23828,182.76416c-12.24707-1.43945-18.2334-2.11328-30.501-3.43652l-.88964-.09571-.543-176.73535,32.56445.05176L872.3584,182.896Z"/><path class="cls-1" d="M991.8457,199.26318c-12.85351-2.00781-19.1416-2.957-32.042-4.83886l-.61816-.08985-.18946-.59472c-8.56933-26.7959-12.92871-40.18457-21.584-66.27-8.5293,23.72412-12.96875,35.88916-21.90332,60.0249l-.27637.749-.791-.10449c-11.61817-1.52539-17.27149-2.24121-28.80176-3.64941l-1.28809-.15723.48047-1.20508c14.23828-35.71875,21.11035-53.34375,34.86524-89.43017C906.53516,57.6875,899.90332,39.99854,886.04492,3.93262l-.52246-1.36133,34.39649.062.23242.67041c8.19238,23.57617,12.25,35.43457,20.001,58.46924C948.207,38.98242,952.334,27.1333,960.49414,3.38916l.23242-.67627,31.02051.06543-.47168,1.33106c-13.27734,37.46-19.8584,55.60449-33.40234,92.083,14.41015,40.55225,21.31836,60.59619,35.07519,101.76514l.52149,1.55859Z"/></g></g></svg>